# xmcd
#
# Track frame offsets:
#	150
#	14214
#	33360
#	45631
#
# Disc length: 778 seconds
# Revision: 1
# Processed by: cddbd v1.5.2PL0 Copyright (c) Steve Scherf et al.
# Submitted via: dBpowerAMP V12.0
#
DISCID=2e030804
DTITLE=Allan Caswell - Strong Enough
DYEAR=2007
DGENRE=Country
TTITLE0=Strong Enough
TTITLE1=On My Shoulder
TTITLE2=His Strong and Gentle Love
TTITLE3=Colour Blind
EXTD=
EXTT0=
EXTT1=
EXTT2=
EXTT3=
PLAYORDER=
